<svg width="1920" height="463" viewBox="0 0 1920 463" fill="none" xmlns="http://www.w3.org/2000/svg">
<path d="M159.026 56.993L0 135.155V463H1938V41.2521L1928.5 35.4434C1890.62 12.2652 1847.06 0 1802.64 0H1799.32C1748.34 0 1698.79 16.8342 1658.36 47.8879C1634.28 66.3829 1606.8 79.9585 1577.48 87.8411L1569.39 90.0164C1523.24 102.423 1474.59 102.115 1428.61 89.1247C1356.21 68.6753 1278.54 79.9712 1214.97 120.193L1209.38 123.729C1194.51 133.134 1180.57 143.921 1167.73 155.946L1135.68 185.964C1095.93 223.192 1047.07 249.29 994.027 261.63C942.952 273.511 889.254 261.081 848.595 227.965L769.966 163.923L680.573 93.3119C650.059 69.2089 616.439 49.3216 580.621 34.1855C527.232 11.6244 469.86 0 411.899 0H404.881C354.044 0 303.547 8.28137 255.372 24.5187L159.026 56.993Z" fill="#332761"/>
</svg>
