<svg width="1920" height="348" viewBox="0 0 1920 348" fill="none" xmlns="http://www.w3.org/2000/svg">
<path d="M1761.14 42.837L1920 101.585V348H-15.9834V31.0059L-9.76294 28.1428C30.5221 9.60082 74.3439 0 118.691 0H130.281C176.664 0 222.228 12.2195 262.387 35.4283C287.162 49.747 314.101 59.9425 342.149 65.6158L353.999 68.0129C399.308 77.1777 446.015 76.948 491.231 67.3381L495.583 66.4131C567.525 51.1231 642.501 59.9694 708.909 91.5831C725.743 99.5969 743.218 106.189 761.15 111.292L868.404 141.808L931.869 152.916C996.183 164.173 1062.35 157.615 1123.2 133.952C1141.59 126.801 1159.36 118.141 1176.32 108.061L1234.41 73.537C1268.74 53.1372 1305.28 36.7282 1343.33 24.6296C1394.67 8.30751 1448.21 0 1502.08 0H1515.79C1566.55 0 1617.11 6.31117 1666.31 18.7882L1761.14 42.837Z" fill="white"/>
</svg>
