<svg width="1920" height="410" viewBox="0 0 1920 410" fill="none" xmlns="http://www.w3.org/2000/svg">
<path d="M141.026 50.4689L-18 119.683V410H1920V36.5299L1912.06 32.2305C1873.02 11.0779 1829.31 0 1784.9 0H1777.53C1728.78 0 1681.15 14.6631 1640.83 42.0844C1616.41 58.6977 1589.16 70.7196 1560.43 77.5607L1551.05 79.7937C1504.94 90.7693 1456.84 90.487 1410.86 78.9868C1337.67 60.6791 1260.2 71.0072 1194.38 107.884L1192.89 108.72C1177.02 117.613 1161.99 127.93 1147.98 139.543L1120.64 162.224C1078.85 196.876 1029.19 220.728 976.027 231.681C924.426 242.311 870.732 230.819 828.002 199.999L751.966 145.158L665.214 84.4774C632.929 61.8955 597.922 43.482 561.022 29.6741C508.582 10.0508 453.045 0 397.054 0H386.757C335.933 0 285.378 7.38367 236.677 21.9197L141.026 50.4689Z" fill="#332761"/>
</svg>
